<svg xmlns="http://www.w3.org/2000/svg" width="674" height="1212" viewBox="0 0 674 1212" version="1.1">
	<path d="M 188.500 100.703 C 184.558 101.726, 181.195 103.433, 178.696 105.676 C 176.604 107.555, 173.679 109.630, 172.196 110.287 C 170.713 110.944, 167.475 113.005, 165 114.866 C 148.929 126.949, 146.595 132.039, 146.597 155 C 146.599 167.399, 147.749 176.063, 150.116 181.500 C 151.984 185.793, 154 192.341, 154 194.117 C 154 196.866, 160.175 204.509, 169.142 212.857 C 173.488 216.904, 177.494 221.054, 178.042 222.079 C 179.860 225.475, 171.280 247.160, 167.103 249.724 C 165.173 250.910, 157 262.147, 157 263.616 C 157 264.016, 156.410 265.053, 155.689 265.921 C 153.587 268.454, 145.381 286.791, 142.452 295.500 C 140.973 299.900, 139.350 306.425, 138.845 310 C 138.340 313.575, 137.468 319.200, 136.906 322.500 C 135.294 331.967, 134.638 360.654, 135.865 368 C 136.462 371.575, 137.425 379, 138.006 384.500 C 140.015 403.542, 148.077 431.294, 154.103 439.915 C 155.866 442.437, 158.750 446.075, 160.513 448 C 162.298 449.949, 165.387 455.687, 167.484 460.947 C 171.216 470.310, 171.239 470.455, 170.057 477.070 C 169.159 482.094, 169.133 486.636, 169.952 495.436 C 170.550 501.866, 170.783 507.541, 170.470 508.049 C 170.156 508.556, 169.492 511.340, 168.993 514.236 C 165.860 532.432, 164.645 537.492, 161.589 545.070 C 156.104 558.674, 155.344 563.683, 152.327 606.178 C 151.632 615.971, 153.588 638.466, 155.648 644.376 C 156.392 646.507, 157 649.985, 157 652.103 C 157 654.517, 158.165 658.108, 160.120 661.721 C 161.836 664.893, 163.819 669.516, 164.528 671.994 C 165.236 674.472, 166.512 678.525, 167.363 681 C 168.214 683.475, 169.675 689.100, 170.610 693.500 C 171.544 697.900, 173.076 702.634, 174.013 704.019 C 175.354 706, 175.854 709.843, 176.352 722.019 C 177.455 748.953, 178.851 772.197, 179.925 781.500 C 180.497 786.450, 180.972 800.047, 180.982 811.715 L 181 832.930 178.072 836.265 C 176.461 838.100, 174.450 841.378, 173.602 843.550 C 171.626 848.614, 168.998 861.471, 169.014 866 C 169.020 867.925, 168.370 872.650, 167.569 876.500 C 166.768 880.350, 165.603 886.650, 164.982 890.500 C 164.360 894.350, 163.249 899.750, 162.513 902.500 C 160.015 911.836, 157 931.797, 156.976 939.163 C 156.963 943.199, 156.443 948.300, 155.821 950.500 C 155.154 952.858, 154.416 968.253, 154.022 988 C 153.170 1030.700, 152.329 1046.253, 150.536 1052.500 C 148.788 1058.589, 147.727 1072.654, 147.557 1092 C 147.440 1105.244, 147.222 1106.890, 145.033 1111 C 141.802 1117.068, 137.352 1123.662, 133.224 1128.500 C 129.825 1132.482, 129.813 1132.533, 130.452 1140 C 131.460 1151.771, 132.478 1154.568, 136.257 1155.942 C 138.040 1156.591, 140.774 1157.770, 142.331 1158.561 C 143.888 1159.352, 146.446 1160, 148.016 1160 C 149.585 1160, 153.936 1160.627, 157.685 1161.392 C 161.433 1162.158, 167.808 1162.767, 171.850 1162.745 C 176.707 1162.719, 179.463 1163.132, 179.976 1163.962 C 180.403 1164.653, 182.946 1165.453, 185.626 1165.740 C 188.307 1166.027, 190.961 1166.624, 191.525 1167.067 C 192.089 1167.509, 194.901 1168.183, 197.775 1168.565 C 200.649 1168.946, 203 1169.537, 203 1169.879 C 203 1170.220, 205.363 1170.622, 208.250 1170.772 C 211.138 1170.922, 218.225 1171.769, 224 1172.655 C 232.278 1173.925, 239.271 1174.156, 257.044 1173.747 C 278.413 1173.256, 279.950 1173.090, 286.544 1170.561 C 290.370 1169.093, 294.400 1167.387, 295.500 1166.769 C 301.056 1163.647, 302.742 1163.011, 305.500 1162.995 C 307.150 1162.986, 310.525 1162.374, 313 1161.635 C 317.664 1160.242, 335 1160.530, 335 1162 C 335 1162.413, 336.337 1163.017, 337.971 1163.344 C 339.605 1163.671, 342.746 1165.077, 344.951 1166.469 C 347.156 1167.861, 349.644 1169, 350.480 1169 C 351.316 1169, 352 1169.477, 352 1170.059 C 352 1170.641, 352.450 1170.840, 353 1170.500 C 353.550 1170.160, 354 1170.344, 354 1170.910 C 354 1171.475, 354.720 1171.661, 355.601 1171.323 C 356.481 1170.985, 357.494 1171.147, 357.851 1171.683 C 359.424 1174.043, 366.161 1176.135, 375.442 1177.144 C 385.229 1178.209, 389.159 1178.062, 403.500 1176.096 C 407.350 1175.568, 416.125 1174.883, 423 1174.572 C 429.875 1174.262, 440.283 1173.735, 446.128 1173.402 C 453.396 1172.989, 456.972 1173.146, 457.437 1173.899 C 458.315 1175.318, 463.513 1175.321, 465.784 1173.903 C 467.004 1173.141, 470.213 1173.080, 476.296 1173.703 C 489.428 1175.050, 489.886 1174.129, 491.060 1144 C 491.898 1122.520, 492.427 1118.661, 496.044 1107.633 C 499.045 1098.485, 499.598 1090.061, 497.489 1085.618 C 495.207 1080.809, 495.633 1077.380, 502.033 1048.999 C 510.342 1012.149, 510.781 1009.709, 511.493 996.334 C 512.312 980.978, 511.025 967.165, 507.520 953.674 C 504.436 941.803, 495.664 915.505, 494.201 913.742 C 490.750 909.585, 486 887.503, 486 875.622 C 486 871.210, 486.129 871, 488.843 871 C 491.916 871, 501.198 868.059, 505.068 865.860 C 508.750 863.767, 509.934 861.828, 509.968 857.832 C 510.020 851.832, 510.713 851, 515.657 851 C 518.100 851, 521.314 850.375, 522.800 849.610 C 525.581 848.178, 526.893 847.893, 540.500 845.756 C 547.980 844.582, 548.520 844.332, 548.801 841.912 C 548.966 840.489, 546.584 831.333, 543.506 821.565 C 540.429 811.797, 537.444 801.487, 536.872 798.653 C 536.228 795.460, 535.704 765.163, 535.494 719 C 535.115 635.774, 535.566 641.626, 527.423 614.252 C 523.692 601.710, 522.739 596.830, 522.056 586.752 C 521.598 580.013, 520.738 573.271, 520.144 571.768 C 519.201 569.385, 519.518 568.275, 522.621 563.064 C 526.956 555.788, 526.662 553.028, 520.956 547.457 L 517 543.594 516.991 525.547 C 516.986 515.553, 516.302 501.922, 515.456 495 C 514.617 488.125, 513.489 478.900, 512.949 474.500 C 512.409 470.100, 511.552 464.250, 511.044 461.500 C 510.535 458.750, 510.089 452.900, 510.051 448.500 C 509.916 432.475, 506.632 411.644, 502.958 403.500 C 500.919 398.980, 498 386.519, 498 382.336 C 498 379.672, 500.031 372.993, 502.295 368.213 C 504.020 364.570, 501.466 352.288, 496.952 342.519 C 494.798 337.856, 492.795 332.569, 492.501 330.771 C 491.264 323.214, 490.614 321.162, 487.346 314.500 C 485.068 309.857, 483.594 305.025, 482.968 300.152 C 481.898 291.818, 480.748 286.904, 478.020 279 C 476.710 275.202, 475.793 268.240, 475.058 256.500 C 474.472 247.150, 473.577 237.925, 473.068 236 C 472.559 234.075, 471.625 230.475, 470.991 228 C 469.182 220.928, 463.536 209.827, 459.857 206.105 C 450.246 196.385, 432.528 186.193, 416.013 180.884 C 407.386 178.112, 405.336 177.835, 394 177.915 C 377.327 178.032, 376.858 178.126, 374.341 181.839 C 373.154 183.591, 368.874 188.282, 364.830 192.262 C 360.786 196.243, 355.214 202.088, 352.449 205.250 C 348.703 209.533, 346.746 211, 344.775 211 C 343.320 211, 340.863 211.519, 339.315 212.154 C 336.131 213.459, 335.445 213.674, 332.148 214.404 C 330.854 214.690, 329.167 215.447, 328.398 216.085 C 326.327 217.803, 326.699 223.674, 329.083 226.898 C 330.967 229.447, 331.047 230.110, 329.922 233.865 C 329.238 236.148, 327.247 239.699, 325.497 241.758 C 323.747 243.816, 322.012 246.732, 321.642 248.237 C 321.271 249.743, 319.827 251.722, 318.433 252.636 C 315.516 254.547, 313 258.916, 313 262.071 C 313 263.444, 315.953 267.231, 321.029 272.371 C 325.446 276.842, 331.633 284.178, 334.779 288.674 C 337.926 293.170, 344.544 301.720, 349.486 307.674 L 358.471 318.500 358.826 326 C 359.250 334.981, 357.403 338.959, 349.527 346.033 C 342.292 352.531, 341.649 353.418, 335.405 365.500 C 332.279 371.550, 329.377 376.950, 328.956 377.500 C 327.650 379.207, 317 404.763, 317.008 406.170 C 317.021 408.473, 311.555 420.952, 310.325 421.427 C 307.551 422.496, 301.705 407.713, 298.095 390.500 C 295.451 377.890, 289.995 363.443, 283.932 353 C 280.206 346.581, 264 313.355, 264 312.133 C 264 311.471, 263.369 309.933, 262.598 308.715 C 260.653 305.643, 256.997 290.477, 257.015 285.560 C 257.034 280.654, 257.716 279.500, 261.079 278.678 C 262.497 278.331, 264.173 276.915, 264.804 275.531 C 265.806 273.332, 265.669 272.852, 263.725 271.735 C 262.501 271.031, 260.600 269.911, 259.500 269.245 C 258.400 268.580, 255.700 267.153, 253.500 266.075 C 248.150 263.454, 243.925 259.359, 244.642 257.490 C 245.244 255.921, 251.872 251.141, 257.302 248.359 C 259.061 247.458, 260.725 246.423, 261 246.058 C 261.275 245.694, 263.075 244.637, 265 243.709 C 266.925 242.781, 270.054 240.717, 271.953 239.121 C 275.792 235.896, 276.039 234.774, 277.921 212 C 278.444 205.675, 278.901 200.422, 278.936 200.328 C 278.971 200.233, 280.575 199.635, 282.500 199 C 286.647 197.631, 288.106 193.931, 285.904 190.368 C 279.217 179.551, 278.596 178.176, 278.189 173.268 C 277.890 169.654, 278.282 166.926, 279.458 164.447 C 281.067 161.057, 281.064 160.628, 279.403 156.680 C 278.113 153.613, 277.597 149.392, 277.467 140.832 L 277.289 129.165 272.640 121.899 C 268.978 116.174, 266.667 113.795, 261.746 110.684 C 254.165 105.890, 251.103 104.791, 239.500 102.698 C 216.812 98.605, 199.226 97.917, 188.500 100.703 M 277.118 845.354 C 276.039 848.848, 274.666 854.361, 274.069 857.604 C 273.471 860.847, 271.833 865.853, 270.428 868.729 C 268.313 873.057, 267.231 874.150, 264.141 875.076 C 260.876 876.054, 260.002 877.040, 257.168 882.943 C 255.386 886.655, 253.576 891.919, 253.146 894.641 C 252.716 897.362, 251.396 900.919, 250.213 902.545 C 248.782 904.511, 247.840 907.741, 247.398 912.198 C 246.742 918.823, 246.763 918.902, 249.367 919.556 C 252.822 920.423, 252.747 921.996, 249.250 922.015 C 247.738 922.024, 245.916 922.401, 245.202 922.854 C 243.533 923.913, 241.545 931.254, 238.529 947.500 C 235.442 964.124, 234.883 966.624, 230.479 983.500 C 224.582 1006.099, 223.660 1014.140, 223.281 1046.250 C 222.994 1070.527, 223.161 1075, 224.355 1075 C 225.899 1075, 228.544 1071.480, 231.117 1066 C 232.482 1063.091, 232.884 1062.798, 233.492 1064.263 C 233.894 1065.232, 233.774 1066.582, 233.223 1067.263 C 232.673 1067.943, 231.903 1071.313, 231.513 1074.750 L 230.804 1081 234.334 1081 C 238.953 1081, 239.959 1083.712, 237.072 1088.383 C 235.932 1090.227, 235 1092.674, 235 1093.821 C 235 1094.968, 234.491 1097.024, 233.868 1098.390 C 232.871 1100.578, 233.173 1101.467, 236.400 1105.864 C 238.415 1108.609, 240.387 1111, 240.782 1111.177 C 241.177 1111.355, 243.658 1114.071, 246.296 1117.214 C 251.742 1123.701, 260.368 1130.580, 267 1133.722 C 272.932 1136.533, 284.819 1138.270, 299.001 1138.397 C 310.394 1138.499, 310.549 1138.469, 315.461 1135.224 L 320.420 1131.949 337.694 1132.519 C 354.913 1133.088, 361.259 1132.386, 365 1129.497 C 365.825 1128.860, 368.750 1127.077, 371.500 1125.534 C 380.277 1120.611, 396 1108.320, 396 1106.381 C 396 1105.723, 394.832 1102.933, 393.404 1100.181 C 390.820 1095.201, 390.813 1095.120, 391.893 1083.292 C 393.099 1070.074, 392.894 1068.857, 387.669 1058.173 C 385.698 1054.143, 383.783 1049.868, 383.412 1048.673 C 381.417 1042.236, 374.010 1027.577, 368.160 1018.489 C 360.911 1007.226, 358.130 1002.435, 350.465 988 C 347.691 982.775, 344.909 977.600, 344.282 976.500 C 340.863 970.495, 337.686 961.758, 335.488 952.314 C 334.493 948.038, 332.004 941.966, 329.339 937.314 C 326.877 933.017, 323.038 925.675, 320.808 921 C 318.578 916.325, 315 908.964, 312.857 904.642 C 307.700 894.242, 307.180 891.487, 305.991 868.278 C 305.434 857.400, 304.762 847.538, 304.498 846.362 C 303.979 844.051, 297.743 841, 293.539 841 C 292.207 841, 290.840 840.550, 290.500 840 C 290.160 839.450, 287.452 839, 284.481 839 L 279.080 839 277.118 845.354 M 400.625 903.125 C 400.281 904.844, 399.996 908.106, 399.990 910.375 C 399.981 914.239, 400.490 914.982, 408.016 922.113 C 415.677 929.373, 417.748 930.418, 416.396 926.340 C 415.420 923.398, 413.003 917.712, 411.575 915 C 410.850 913.625, 409.694 910.700, 409.006 908.500 C 407.665 904.216, 404.413 900, 402.451 900 C 401.790 900, 400.969 901.406, 400.625 903.125" stroke="none" fill="black" fill-rule="evenodd"/>
</svg>